<?xml version="1.0" encoding="UTF-8"?>
<svg xmlns="http://www.w3.org/2000/svg" width="960" height="540" viewBox="0 0 960 540">
  <defs>
    <linearGradient id="bg" x1="0" y1="0" x2="1" y2="1">
      <stop offset="0%" stop-color="#312e81"/>
      <stop offset="100%" stop-color="#1e3a8a"/>
    </linearGradient>
    <linearGradient id="col" x1="0" y1="0" x2="0" y2="1">
      <stop offset="0%" stop-color="#60a5fa" stop-opacity="0.85"/>
      <stop offset="100%" stop-color="#22d3ee" stop-opacity="0.85"/>
    </linearGradient>
  </defs>
  <rect width="960" height="540" rx="24" fill="url(#bg)"/>
  <g transform="translate(40,40)">
    <rect x="0" y="0" width="880" height="460" rx="16" fill="#0b1220" opacity="0.55"/>
    <!-- columns -->
    <g transform="translate(20,20)">
      <rect x="0" y="0" width="260" height="420" rx="12" fill="#0ea5e9" opacity="0.18"/>
      <rect x="300" y="0" width="260" height="420" rx="12" fill="#8b5cf6" opacity="0.18"/>
      <rect x="600" y="0" width="260" height="420" rx="12" fill="#3b82f6" opacity="0.18"/>
    </g>
    <!-- cards -->
    <g transform="translate(40,40)">
      <rect x="0" y="0" width="220" height="70" rx="10" fill="#111827"/>
      <rect x="0" y="90" width="220" height="70" rx="10" fill="#111827"/>
      <rect x="0" y="180" width="220" height="70" rx="10" fill="#111827"/>

      <rect x="300" y="0" width="220" height="70" rx="10" fill="#111827"/>
      <rect x="300" y="90" width="220" height="70" rx="10" fill="#111827"/>

      <rect x="600" y="0" width="220" height="70" rx="10" fill="#111827"/>
      <rect x="600" y="90" width="220" height="70" rx="10" fill="#111827"/>
      <rect x="600" y="180" width="220" height="70" rx="10" fill="#111827"/>
    </g>
    <!-- mini chart -->
    <g transform="translate(40,360)">
      <rect x="0" y="0" width="300" height="60" rx="8" fill="#0f172a"/>
      <polyline points="10,40 50,30 90,35 130,25 170,28 210,22 250,15 290,20" fill="none" stroke="#22d3ee" stroke-width="3"/>
    </g>
  </g>
</svg>